<?xml version="1.0" standalone="no"?><!DOCTYPE svg PUBLIC "-//W3C//DTD SVG 1.1//EN" "http://www.w3.org/Graphics/SVG/1.1/DTD/svg11.dtd"><svg t="1547640165001" class="icon" style="" viewBox="0 0 1024 1024" version="1.1" xmlns="http://www.w3.org/2000/svg" p-id="8151" xmlns:xlink="http://www.w3.org/1999/xlink" width="128" height="128"><defs><style type="text/css"></style></defs><path d="M726.613333 187.086667c-57.333333-57.326667-133.566667-88.906667-214.646667-88.906667-81.086667 0-157.306667 31.58-214.646667 88.906667-57.326667 57.333333-88.906667 133.566667-88.906667 214.646667 0 54.146667 14.44 107.313333 41.766667 153.726667 24.1 40.96 57.64 75.84 97.506667 101.566667l0 150.726667c0 37.473333 30.48 67.96 67.953333 67.96l192.26 0c37.473333 0 67.973333-30.486667 67.973333-67.96l0-150.506667c39.953333-25.686667 73.58-60.573333 97.766667-101.58 27.393333-46.473333 41.866667-99.713333 41.866667-153.94C815.513333 320.653333 783.953333 244.426667 726.613333 187.086667zM607.913333 827.166667 415.653333 827.166667c-10.706667 0-19.42-8.706667-19.42-19.42l0-65.966667 231.12 0 0 65.966667C627.353333 818.466667 618.62 827.166667 607.913333 827.166667zM731.82 531.006667c-22.34 37.9-54.273333 69.58-92.366667 91.62l-12.106667 7.013333 0 63.593333L396.233333 693.233333l0-63.793333-12.08-7.02c-37.993333-22.066667-69.846667-53.733333-92.133333-91.58-22.933333-38.98-35.053333-83.62-35.053333-129.12 0-68.12 26.52-132.153333 74.693333-180.32s112.2-74.68 180.306667-74.68c68.12 0 132.166667 26.52 180.326667 74.693333 48.16 48.173333 74.68 112.2 74.68 180.32C766.98 447.3 754.82 492.006667 731.82 531.006667zM605.06 905.92 418.88 905.92c-13.413333 0-24.273333 10.86-24.273333 24.273333 0 13.4 10.86 24.26 24.273333 24.26l186.18 0c13.413333 0 24.286667-10.86 24.286667-24.26C629.34 916.78 618.46 905.92 605.06 905.92z" p-id="8152"></path></svg>