<?xml version="1.0" standalone="no"?><!DOCTYPE svg PUBLIC "-//W3C//DTD SVG 1.1//EN" "http://www.w3.org/Graphics/SVG/1.1/DTD/svg11.dtd"><svg t="1547203310414" class="icon" style="" viewBox="0 0 1024 1024" version="1.1" xmlns="http://www.w3.org/2000/svg" p-id="2405" xmlns:xlink="http://www.w3.org/1999/xlink" width="128" height="128"><defs><style type="text/css"></style></defs><path d="M719.480448 65.720817 304.529785 65.720817c-51.55826 0-93.508697 41.950438-93.508697 93.508697l0 705.550181c0 51.55826 41.950438 93.498464 93.508697 93.498464L719.480448 958.278159c51.55826 0 93.498464-41.940205 93.498464-93.498464L812.978912 159.229514C812.978912 107.671255 771.038708 65.720817 719.480448 65.720817zM304.529785 127.992069 719.480448 127.992069c17.220197 0 31.227212 14.017248 31.227212 31.237445l0 487.479537L273.29234 646.709051 273.29234 159.229514C273.29234 142.009318 287.309588 127.992069 304.529785 127.992069zM719.480448 896.006907 304.529785 896.006907c-17.220197 0-31.237445-14.007015-31.237445-31.227212L273.29234 688.221514l477.414297 0 0 176.558182C750.706637 881.999892 736.700645 896.006907 719.480448 896.006907z" p-id="2406"></path><path d="M512 783.576255m-51.892881 0a50.711 50.711 0 1 0 103.785761 0 50.711 50.711 0 1 0-103.785761 0Z" p-id="2407"></path></svg>