<?xml version="1.0" standalone="no"?><!DOCTYPE svg PUBLIC "-//W3C//DTD SVG 1.1//EN" "http://www.w3.org/Graphics/SVG/1.1/DTD/svg11.dtd"><svg t="1547640796680" class="icon" style="" viewBox="0 0 1024 1024" version="1.1" xmlns="http://www.w3.org/2000/svg" p-id="2175" xmlns:xlink="http://www.w3.org/1999/xlink" width="128" height="128"><defs><style type="text/css"></style></defs><path d="M738 610v-61a8 8 0 0 0-8-8H294a8 8 0 0 0-8 8v61h96c17.673 0 32 14.327 32 32v286c0 17.673-14.327 32-32 32H96c-17.673 0-32-14.327-32-32V642c0-17.673 14.327-32 32-32h126V509c0-17.673 14.327-32 32-32h226v-63H369c-17.673 0-32-14.327-32-32V96c0-17.673 14.327-32 32-32h286c17.673 0 32 14.327 32 32v286c0 17.673-14.327 32-32 32H544v63h226c17.673 0 32 14.327 32 32v101h126c17.673 0 32 14.327 32 32v286c0 17.673-14.327 32-32 32H642c-17.673 0-32-14.327-32-32V642c0-17.673 14.327-32 32-32h96zM409 128a8 8 0 0 0-8 8v206a8 8 0 0 0 8 8h206a8 8 0 0 0 8-8V136a8 8 0 0 0-8-8H409zM136 674a8 8 0 0 0-8 8v206a8 8 0 0 0 8 8h206a8 8 0 0 0 8-8V682a8 8 0 0 0-8-8H136z m546 0a8 8 0 0 0-8 8v206a8 8 0 0 0 8 8h206a8 8 0 0 0 8-8V682a8 8 0 0 0-8-8H682z" p-id="2176"></path></svg>