<?xml version="1.0" standalone="no"?><!DOCTYPE svg PUBLIC "-//W3C//DTD SVG 1.1//EN" "http://www.w3.org/Graphics/SVG/1.1/DTD/svg11.dtd"><svg t="1547640296386" class="icon" style="" viewBox="0 0 1024 1024" version="1.1" xmlns="http://www.w3.org/2000/svg" p-id="10753" xmlns:xlink="http://www.w3.org/1999/xlink" width="128" height="128"><defs><style type="text/css"></style></defs><path d="M169.984 108.544h686.08v808.96H169.984z" fill="#FFEA00" p-id="10754"></path><path d="M757.76 552.96h-61.44v-102.4h-163.84v-81.92h102.4c12.288 0 20.48-8.192 20.48-20.48v-102.4c0-12.288-8.192-20.48-20.48-20.48H409.6c-12.288 0-20.48 8.192-20.48 20.48v102.4c0 12.288 8.192 20.48 20.48 20.48h102.4v81.92h-163.84v102.4h-81.92c-12.288 0-20.48 8.192-20.48 20.48v61.44c0 12.288 8.192 20.48 20.48 20.48h184.32c12.288 0 20.48-8.192 20.48-20.48v-61.44c0-12.288-8.192-20.48-20.48-20.48h-81.92v-81.92h307.2v81.92h-102.4c-12.288 0-20.48 8.192-20.48 20.48v61.44c0 12.288 8.192 20.48 20.48 20.48h184.32c12.288 0 20.48-8.192 20.48-20.48v-61.44c0-12.288-8.192-20.48-20.48-20.48z m-307.2 143.36h-184.32c-12.288 0-20.48 8.192-20.48 20.48v61.44c0 12.288 8.192 20.48 20.48 20.48h184.32c12.288 0 20.48-8.192 20.48-20.48v-61.44c0-12.288-8.192-20.48-20.48-20.48z m307.2 0h-184.32c-12.288 0-20.48 8.192-20.48 20.48v61.44c0 12.288 8.192 20.48 20.48 20.48h184.32c12.288 0 20.48-8.192 20.48-20.48v-61.44c0-12.288-8.192-20.48-20.48-20.48z" fill="" p-id="10755"></path><path d="M880.64 0H143.36C98.304 0 61.44 36.864 61.44 81.92v860.16c0 45.056 36.864 81.92 81.92 81.92h737.28c45.056 0 81.92-36.864 81.92-81.92V81.92c0-45.056-36.864-81.92-81.92-81.92z m20.48 921.6c0 22.528-18.432 40.96-40.96 40.96H163.84c-22.528 0-40.96-18.432-40.96-40.96V102.4c0-22.528 18.432-40.96 40.96-40.96h696.32c22.528 0 40.96 18.432 40.96 40.96v819.2z" fill="" p-id="10756"></path></svg>