<?xml version="1.0" standalone="no"?><!DOCTYPE svg PUBLIC "-//W3C//DTD SVG 1.1//EN" "http://www.w3.org/Graphics/SVG/1.1/DTD/svg11.dtd"><svg t="1547640268470" class="icon" style="" viewBox="0 0 1024 1024" version="1.1" xmlns="http://www.w3.org/2000/svg" p-id="10617" xmlns:xlink="http://www.w3.org/1999/xlink" width="128" height="128"><defs><style type="text/css"></style></defs><path d="M120.837624 805.638737l23.812335 0 0 42.813085-23.812335 0L120.837624 805.638737 120.837624 805.638737zM382.545114 805.066709l23.814382 0 0 73.073272-23.814382 0L382.545114 805.066709 382.545114 805.066709zM225.490126 803.852044l23.814382 0 0 73.714885-23.814382 0L225.490126 803.852044 225.490126 803.852044zM173.140851 805.638737l23.860431 0 0 42.813085-23.860431 0L173.140851 805.638737 173.140851 805.638737zM277.844517 806.853401l23.812335 0 0 42.814108-23.812335 0L277.844517 806.853401 277.844517 806.853401zM330.193793 806.853401l23.812335 0 0 42.814108-23.812335 0L330.193793 806.853401 330.193793 806.853401zM434.847318 806.853401l23.815405 0 0 42.814108L434.847318 849.667509 434.847318 806.853401 434.847318 806.853401zM487.199663 806.853401l23.811312 0 0 42.814108L487.199663 849.667509 487.199663 806.853401 487.199663 806.853401zM539.547915 803.852044l23.814382 0 0 73.142857-23.814382 0L539.547915 803.852044 539.547915 803.852044zM591.902306 806.028617l23.812335 0 0 42.813085-23.812335 0L591.902306 806.028617 591.902306 806.028617zM644.251581 805.638737l23.814382 0 0 42.813085-23.814382 0L644.251581 805.638737 644.251581 805.638737zM696.602903 804.447609l23.814382 0 0 72.157413-23.814382 0L696.602903 804.447609 696.602903 804.447609zM748.90613 805.456588l23.815405 0 0 42.813085-23.815405 0L748.90613 805.456588 748.90613 805.456588zM801.258475 805.456588l23.812335 0 0 42.813085-23.812335 0L801.258475 805.456588 801.258475 805.456588zM853.609797 805.754371l23.814382 0 0 71.5158-23.814382 0L853.609797 805.754371 853.609797 805.754371zM927.316495 757.442038 83.382571 757.442038c-11.474332 0-20.826328 9.689686-20.826328 21.600971l0 152.860457c0 11.888771 9.351995 21.647019 20.826328 21.647019l843.933925 0c11.470239 0 20.822235-9.758248 20.822235-21.647019L948.13873 779.043009C948.13873 767.130701 938.786735 757.442038 927.316495 757.442038L927.316495 757.442038zM908.852982 798.216697l0 114.536616L101.841991 912.753313 101.841991 798.216697 908.852982 798.216697 908.852982 798.216697zM531.30723 441.73468c-23.863501 0-46.324048 9.30083-63.198368 26.182312-20.679995 20.686135-22.463618 33.833573-26.801413 65.60723-2.989077 21.738094-7.0383 51.540863-18.993586 99.43978l-2.410909 9.598612 9.641591-2.405793c47.867194-11.958356 77.612659-16.057721 99.350752-18.99154 31.766494-4.351098 44.926212-6.116301 65.658396-26.800389 34.850739-34.864042 34.850739-91.606371 0-126.4479C577.632301 451.034487 555.216779 441.73468 531.30723 441.73468L531.30723 441.73468zM517.568321 589.875648c-13.737886 1.534959-30.465872 3.436262-52.497655 7.514137 4.100388-22.014386 5.979178-38.758746 7.474228-52.480258 3.035126-27.145244 4.435009-39.492456 18.752086-53.854559 10.700713-10.651594 24.920576-16.538675 40.010249-16.538675 15.135722 0 29.355585 5.887081 40.058344 16.538675 22.076808 22.128997 22.076808 58.046021 0 80.129992C557.048497 585.501014 544.659329 586.897827 517.568321 589.875648L517.568321 589.875648zM941.775812 181.967378l-61.317531-61.277622c-8.435113-8.475022-22.174022-8.475022-30.609135 0L558.735929 411.818323c-4.7727 4.764514-6.553253 11.178597-5.975085 17.385972 19.039635 4.444219 37.114293 13.745049 51.91437 28.54308 14.799054 14.798031 24.15105 32.91669 28.587082 51.90823 6.218632 0.641613 12.626575-1.14508 17.403369-5.910617l291.110147-291.128567C950.260044 204.1414 950.260044 190.4424 941.775812 181.967378L941.775812 181.967378zM635.334491 457.747375l-30.659277-30.604018 199.183482-199.201901 30.659277 30.627555L635.334491 457.747375 635.334491 457.747375zM849.849146 243.243977l-30.661324-30.627555 45.988404-45.974078 30.613228 30.650067L849.849146 243.243977 849.849146 243.243977zM405.297304 677.748998 143.058718 677.748998l121.236202-121.272018c8.149611-8.109702 8.149611-21.349237 0-29.458939-3.90289-3.963265-9.156544-6.116301-14.700817-6.116301-5.592368 0-10.797927 2.153036-14.753005 6.116301L113.55987 648.311549 113.55987 85.848227c0-11.476379-9.351995-20.823258-20.825304-20.823258-11.519358 0-20.871353 9.346879-20.871353 20.823258l0 612.790544c0 8.337899 5.589298 20.824281 20.871353 20.824281l312.562738 0c11.474332 0 20.826328-9.369392 20.826328-20.824281C426.122609 687.116343 416.771637 677.748998 405.297304 677.748998L405.297304 677.748998zM405.297304 677.748998" p-id="10618"></path></svg>